<mxfile host="app.diagrams.net" agent="Mozilla/5.0 (Windows NT 10.0; Win64; x64) AppleWebKit/537.36 (KHTML, like Gecko) Chrome/135.0.0.0 Safari/537.36 Edg/135.0.0.0" version="26.2.15" pages="2">
  <diagram name="整体和各维度分析" id="-CptS_FyW93wxNX5hnl3">
    <mxGraphModel dx="938" dy="658" grid="1" gridSize="10" guides="1" tooltips="1" connect="1" arrows="1" fold="1" page="1" pageScale="1" pageWidth="827" pageHeight="1169" math="0" shadow="0">
      <root>
        <mxCell id="0" />
        <mxCell id="1" parent="0" />
        <mxCell id="sgrRT7Y9RnZKxksEeC1y-44" value="" style="rounded=0;whiteSpace=wrap;html=1;" parent="1" vertex="1">
          <mxGeometry x="47.5" y="1120" width="190" height="232.5" as="geometry" />
        </mxCell>
        <mxCell id="sgrRT7Y9RnZKxksEeC1y-24" value="" style="rounded=0;whiteSpace=wrap;html=1;dashed=1;" parent="1" vertex="1">
          <mxGeometry x="57.5" y="1240" width="166" height="90" as="geometry" />
        </mxCell>
        <mxCell id="sgrRT7Y9RnZKxksEeC1y-23" value="" style="rounded=0;whiteSpace=wrap;html=1;dashed=1;" parent="1" vertex="1">
          <mxGeometry x="57.5" y="1135" width="170" height="100" as="geometry" />
        </mxCell>
        <mxCell id="sgrRT7Y9RnZKxksEeC1y-10" value="" style="rounded=0;whiteSpace=wrap;html=1;dashed=1;fillColor=none;" parent="1" vertex="1">
          <mxGeometry x="77.5" y="580" width="110" height="160" as="geometry" />
        </mxCell>
        <mxCell id="sgrRT7Y9RnZKxksEeC1y-1" value="新闻5" style="rounded=0;whiteSpace=wrap;html=1;" parent="1" vertex="1">
          <mxGeometry x="97.5" y="710" width="70" height="20" as="geometry" />
        </mxCell>
        <mxCell id="sgrRT7Y9RnZKxksEeC1y-2" value="新闻4" style="rounded=0;whiteSpace=wrap;html=1;" parent="1" vertex="1">
          <mxGeometry x="97.5" y="680" width="70" height="20" as="geometry" />
        </mxCell>
        <mxCell id="sgrRT7Y9RnZKxksEeC1y-3" value="新闻3" style="rounded=0;whiteSpace=wrap;html=1;" parent="1" vertex="1">
          <mxGeometry x="97.5" y="650" width="70" height="20" as="geometry" />
        </mxCell>
        <mxCell id="sgrRT7Y9RnZKxksEeC1y-4" value="新闻2" style="rounded=0;whiteSpace=wrap;html=1;" parent="1" vertex="1">
          <mxGeometry x="97.5" y="620" width="70" height="20" as="geometry" />
        </mxCell>
        <mxCell id="sgrRT7Y9RnZKxksEeC1y-5" value="新闻1" style="rounded=0;whiteSpace=wrap;html=1;" parent="1" vertex="1">
          <mxGeometry x="97.5" y="590" width="70" height="20" as="geometry" />
        </mxCell>
        <mxCell id="sgrRT7Y9RnZKxksEeC1y-9" value="获取新闻数据&lt;div&gt;搜索引擎、API&lt;/div&gt;" style="text;html=1;align=center;verticalAlign=middle;whiteSpace=wrap;rounded=0;" parent="1" vertex="1">
          <mxGeometry x="237.5" y="510" width="125" height="30" as="geometry" />
        </mxCell>
        <mxCell id="sgrRT7Y9RnZKxksEeC1y-14" value="用LLM标记 各个新闻&lt;div&gt;风险维度、风险等级、可信度、关注企业&lt;/div&gt;" style="text;html=1;align=center;verticalAlign=middle;whiteSpace=wrap;rounded=0;" parent="1" vertex="1">
          <mxGeometry x="223.5" y="750" width="152.5" height="50" as="geometry" />
        </mxCell>
        <mxCell id="sgrRT7Y9RnZKxksEeC1y-15" value="信用预警" style="text;html=1;align=center;verticalAlign=middle;whiteSpace=wrap;rounded=0;" parent="1" vertex="1">
          <mxGeometry x="57.5" y="1170" width="60" height="30" as="geometry" />
        </mxCell>
        <mxCell id="sgrRT7Y9RnZKxksEeC1y-16" value="管理预警" style="text;html=1;align=center;verticalAlign=middle;whiteSpace=wrap;rounded=0;" parent="1" vertex="1">
          <mxGeometry x="57.5" y="1260" width="60" height="30" as="geometry" />
        </mxCell>
        <mxCell id="sgrRT7Y9RnZKxksEeC1y-17" value="新闻1" style="rounded=0;whiteSpace=wrap;html=1;" parent="1" vertex="1">
          <mxGeometry x="133.5" y="1140" width="70" height="20" as="geometry" />
        </mxCell>
        <mxCell id="sgrRT7Y9RnZKxksEeC1y-18" value="新闻2" style="rounded=0;whiteSpace=wrap;html=1;" parent="1" vertex="1">
          <mxGeometry x="133.5" y="1175" width="70" height="20" as="geometry" />
        </mxCell>
        <mxCell id="sgrRT7Y9RnZKxksEeC1y-19" value="新闻3" style="rounded=0;whiteSpace=wrap;html=1;" parent="1" vertex="1">
          <mxGeometry x="133.5" y="1210" width="70" height="20" as="geometry" />
        </mxCell>
        <mxCell id="sgrRT7Y9RnZKxksEeC1y-20" value="新闻1" style="rounded=0;whiteSpace=wrap;html=1;" parent="1" vertex="1">
          <mxGeometry x="133.5" y="1250" width="70" height="20" as="geometry" />
        </mxCell>
        <mxCell id="sgrRT7Y9RnZKxksEeC1y-22" value="新闻4" style="rounded=0;whiteSpace=wrap;html=1;" parent="1" vertex="1">
          <mxGeometry x="133.5" y="1290" width="70" height="20" as="geometry" />
        </mxCell>
        <mxCell id="sgrRT7Y9RnZKxksEeC1y-29" value="整理合并同风险维度新闻&lt;br&gt;删除无风险和非关注企业&lt;div&gt;&lt;br&gt;&lt;/div&gt;" style="text;html=1;align=center;verticalAlign=middle;whiteSpace=wrap;rounded=0;" parent="1" vertex="1">
          <mxGeometry x="220" y="1070" width="194" height="30" as="geometry" />
        </mxCell>
        <mxCell id="sgrRT7Y9RnZKxksEeC1y-32" value="" style="rounded=0;whiteSpace=wrap;html=1;dashed=1;fillColor=#dae8fc;strokeColor=#6c8ebf;" parent="1" vertex="1">
          <mxGeometry x="30" y="820" width="220" height="205" as="geometry" />
        </mxCell>
        <mxCell id="sgrRT7Y9RnZKxksEeC1y-33" value="新闻5 不属于预警" style="rounded=0;whiteSpace=wrap;html=1;" parent="1" vertex="1">
          <mxGeometry x="50" y="992.5" width="160" height="25" as="geometry" />
        </mxCell>
        <mxCell id="sgrRT7Y9RnZKxksEeC1y-34" value="新闻4 管理预警 中风险" style="rounded=0;whiteSpace=wrap;html=1;" parent="1" vertex="1">
          <mxGeometry x="50" y="957.5" width="160" height="25" as="geometry" />
        </mxCell>
        <mxCell id="sgrRT7Y9RnZKxksEeC1y-35" value="新闻3 信用预警&amp;nbsp; 高风险" style="rounded=0;whiteSpace=wrap;html=1;" parent="1" vertex="1">
          <mxGeometry x="50" y="917.5" width="160" height="25" as="geometry" />
        </mxCell>
        <mxCell id="sgrRT7Y9RnZKxksEeC1y-36" value="新闻2 信用预警&amp;nbsp; 高风险" style="rounded=0;whiteSpace=wrap;html=1;" parent="1" vertex="1">
          <mxGeometry x="50" y="885" width="160" height="25" as="geometry" />
        </mxCell>
        <mxCell id="sgrRT7Y9RnZKxksEeC1y-37" value="新闻1&amp;nbsp;&lt;div&gt;信用预警&amp;nbsp; 高风险&lt;div&gt;管理预警 中风险&lt;/div&gt;&lt;/div&gt;" style="rounded=0;whiteSpace=wrap;html=1;" parent="1" vertex="1">
          <mxGeometry x="50" y="830" width="160" height="45" as="geometry" />
        </mxCell>
        <mxCell id="sgrRT7Y9RnZKxksEeC1y-40" value="输入LLM，分析企业整体的风险和各预警维度的风险" style="text;html=1;align=center;verticalAlign=middle;whiteSpace=wrap;rounded=0;" parent="1" vertex="1">
          <mxGeometry x="211.5" y="1370" width="202.5" height="50" as="geometry" />
        </mxCell>
        <mxCell id="sgrRT7Y9RnZKxksEeC1y-50" value="&lt;div style=&quot;color: rgb(212, 212, 212); font-family: Consolas, &amp;quot;Courier New&amp;quot;, monospace; font-size: 13px; line-height: 18px; white-space: pre;&quot;&gt;&lt;div style=&quot;&quot;&gt;&lt;div style=&quot;background-color: rgb(30, 30, 30); line-height: 18px;&quot;&gt;&lt;div&gt;&lt;span style=&quot;color: #ce9178;&quot;&gt;* 风险等级：企业整体风险等级 &lt;/span&gt;&lt;/div&gt;&lt;div&gt;&lt;span style=&quot;color: #ce9178;&quot;&gt;* 判断依据：企业整体风险等级的判断依据，重点体现交叉风险，不要包含具体的新闻编号&lt;/span&gt;&lt;/div&gt;&lt;div&gt;&lt;span style=&quot;color: #ce9178;&quot;&gt;* 依据新闻：列表，存储判断依据中参考或提到的新闻编号&lt;/span&gt;&lt;/div&gt;&lt;div&gt;&lt;span style=&quot;color: #ce9178;&quot;&gt;* 各风险维度：列表，存储所有风险维度的数据&lt;/span&gt;&lt;/div&gt;&lt;div&gt;&lt;span style=&quot;color: #ce9178;&quot;&gt;&amp;nbsp; &amp;nbsp; * 风险维度: 风险维度名称/风险维度组合名称（用+号连接多个风险维度）&lt;/span&gt;&lt;/div&gt;&lt;div&gt;&lt;span style=&quot;color: #ce9178;&quot;&gt;&amp;nbsp; &amp;nbsp; * 风险等级：该风险维度的风险等级&lt;/span&gt;&lt;/div&gt;&lt;div&gt;&lt;span style=&quot;color: #ce9178;&quot;&gt;&amp;nbsp; &amp;nbsp; * 判断依据：风险等级的判断依据，不要包含具体的新闻编号&lt;/span&gt;&lt;/div&gt;&lt;div&gt;&lt;span style=&quot;color: #ce9178;&quot;&gt;&amp;nbsp; &amp;nbsp; * 依据新闻：列表，存储判断依据中参考或提到的新闻编号&lt;/span&gt;&lt;/div&gt;&lt;/div&gt;&lt;/div&gt;&lt;/div&gt;" style="rounded=0;whiteSpace=wrap;html=1;align=left;strokeColor=none;" parent="1" vertex="1">
          <mxGeometry x="420" y="1470" width="520" height="150" as="geometry" />
        </mxCell>
        <mxCell id="3aBp0pV8HTG3el5-I6ZC-2" value="" style="html=1;shadow=0;dashed=0;align=center;verticalAlign=middle;shape=mxgraph.arrows2.arrow;dy=0.6;dx=40;direction=south;notch=0;" vertex="1" parent="1">
          <mxGeometry x="125" y="1380" width="30" height="70" as="geometry" />
        </mxCell>
        <mxCell id="T9yDbReyKK24o-jUDLcp-1" value="&lt;div style=&quot;color: #d4d4d4;background-color: #1e1e1e;font-family: Consolas, &#39;Courier New&#39;, monospace;font-weight: normal;font-size: 13px;line-height: 18px;white-space: pre;&quot;&gt;&lt;div&gt;&lt;span style=&quot;color: #ce9178;&quot;&gt;&amp;nbsp; &amp;nbsp; &amp;nbsp; &amp;nbsp; * 关注企业名称：新闻中主要针对的企业，最关注的企业&lt;/span&gt;&lt;/div&gt;&lt;div&gt;&lt;span style=&quot;color: #ce9178;&quot;&gt;&amp;nbsp; &amp;nbsp; &amp;nbsp; &amp;nbsp; * 新闻编号：输入数据中的新闻编号&lt;/span&gt;&lt;/div&gt;&lt;div&gt;&lt;span style=&quot;color: #ce9178;&quot;&gt;&amp;nbsp; &amp;nbsp; &amp;nbsp; &amp;nbsp; * 可信度&lt;/span&gt;&lt;/div&gt;&lt;div&gt;&lt;span style=&quot;color: #ce9178;&quot;&gt;&amp;nbsp; &amp;nbsp; &amp;nbsp; &amp;nbsp; * 可信度分析&lt;/span&gt;&lt;/div&gt;&lt;div&gt;&lt;span style=&quot;color: #ce9178;&quot;&gt;&amp;nbsp; &amp;nbsp; &amp;nbsp; &amp;nbsp; * 风险：是一个列表，列表中每个元素是字典，字典中有风险维度和风险等级两个字段&lt;/span&gt;&lt;/div&gt;&lt;div&gt;&lt;span style=&quot;color: #ce9178;&quot;&gt;&amp;nbsp; &amp;nbsp; &amp;nbsp; &amp;nbsp; &amp;nbsp; &amp;nbsp; * 风险维度：（若涉及子维度，则标记其父维度）&lt;/span&gt;&lt;/div&gt;&lt;div&gt;&lt;span style=&quot;color: #ce9178;&quot;&gt;&amp;nbsp; &amp;nbsp; &amp;nbsp; &amp;nbsp; &amp;nbsp; &amp;nbsp; * 风险等级：按影响程度分为高风险、低风险、潜在风险、无风险&lt;/span&gt;&lt;/div&gt;&lt;div&gt;&lt;span style=&quot;color: #ce9178;&quot;&gt;&amp;nbsp; &amp;nbsp; &amp;nbsp; &amp;nbsp; &amp;nbsp; &amp;nbsp; * 判断依据：用1-2句话简要说明理由。风险维度和风险等级的判断依据&lt;/span&gt;&lt;/div&gt;&lt;/div&gt;" style="text;whiteSpace=wrap;html=1;" vertex="1" parent="1">
          <mxGeometry x="420" y="847.5" width="560" height="170" as="geometry" />
        </mxCell>
        <mxCell id="T9yDbReyKK24o-jUDLcp-2" value="" style="html=1;shadow=0;dashed=0;align=center;verticalAlign=middle;shape=mxgraph.arrows2.arrow;dy=0.6;dx=40;direction=south;notch=0;" vertex="1" parent="1">
          <mxGeometry x="117.5" y="1040" width="30" height="70" as="geometry" />
        </mxCell>
        <mxCell id="T9yDbReyKK24o-jUDLcp-4" value="" style="html=1;shadow=0;dashed=0;align=center;verticalAlign=middle;shape=mxgraph.arrows2.arrow;dy=0.6;dx=40;direction=south;notch=0;" vertex="1" parent="1">
          <mxGeometry x="117.5" y="750" width="30" height="70" as="geometry" />
        </mxCell>
        <mxCell id="T9yDbReyKK24o-jUDLcp-5" value="" style="html=1;shadow=0;dashed=0;align=center;verticalAlign=middle;shape=mxgraph.arrows2.arrow;dy=0.6;dx=40;direction=south;notch=0;" vertex="1" parent="1">
          <mxGeometry x="117.5" y="500" width="30" height="70" as="geometry" />
        </mxCell>
        <mxCell id="T9yDbReyKK24o-jUDLcp-6" value="企业" style="rounded=0;whiteSpace=wrap;html=1;" vertex="1" parent="1">
          <mxGeometry x="72.5" y="420" width="120" height="60" as="geometry" />
        </mxCell>
        <mxCell id="T9yDbReyKK24o-jUDLcp-8" value="分析结果" style="rounded=0;whiteSpace=wrap;html=1;" vertex="1" parent="1">
          <mxGeometry x="83.5" y="1480" width="120" height="60" as="geometry" />
        </mxCell>
      </root>
    </mxGraphModel>
  </diagram>
  <diagram id="g4KfrPMEAd8bduHjf5qQ" name="趋势预测">
    <mxGraphModel dx="2138" dy="1458" grid="1" gridSize="10" guides="1" tooltips="1" connect="1" arrows="1" fold="1" page="0" pageScale="1" pageWidth="827" pageHeight="1169" math="0" shadow="0">
      <root>
        <mxCell id="0" />
        <mxCell id="1" parent="0" />
        <mxCell id="ap1UafbcO5KSiNEdRv5n-14" style="edgeStyle=none;curved=1;orthogonalLoop=1;jettySize=auto;html=1;entryX=1;entryY=0.5;entryDx=0;entryDy=0;fontSize=12;startSize=8;endSize=8;" edge="1" parent="1" source="oFf2WfIn4G3x6mx1aA_b-1" target="oFf2WfIn4G3x6mx1aA_b-9">
          <mxGeometry relative="1" as="geometry">
            <Array as="points">
              <mxPoint x="-270" y="-40" />
            </Array>
          </mxGeometry>
        </mxCell>
        <mxCell id="oFf2WfIn4G3x6mx1aA_b-1" value="知识库" style="rounded=0;whiteSpace=wrap;html=1;" vertex="1" parent="1">
          <mxGeometry x="-320" y="-170" width="120" height="60" as="geometry" />
        </mxCell>
        <mxCell id="oFf2WfIn4G3x6mx1aA_b-2" value="&lt;h1 style=&quot;text-align: left;&quot;&gt;蓝色箭头使用相同处理方式&lt;/h1&gt;&lt;div style=&quot;text-align: left;&quot;&gt;&lt;span style=&quot;background-color: transparent; color: light-dark(rgb(0, 0, 0), rgb(255, 255, 255));&quot;&gt;输入llm格式化新闻，提取所有新闻中风险事件的发展趋势，同时记录风险事件（时间，摘要等）&lt;/span&gt;&lt;/div&gt;&lt;div style=&quot;text-align: left;&quot;&gt;&lt;br&gt;&lt;/div&gt;&lt;div style=&quot;text-align: left;&quot;&gt;&lt;span style=&quot;background-color: transparent; color: light-dark(rgb(0, 0, 0), rgb(255, 255, 255));&quot;&gt;仅保留相关该企业的风险新闻且新闻中存在任意风险维度的风险&lt;/span&gt;&lt;/div&gt;&lt;h1&gt;&lt;br&gt;&lt;/h1&gt;" style="text;html=1;align=center;verticalAlign=middle;whiteSpace=wrap;rounded=0;" vertex="1" parent="1">
          <mxGeometry x="130" y="-310" width="297.5" height="140" as="geometry" />
        </mxCell>
        <mxCell id="cwKaPlKyqX2xf4Qcig6E-10" style="edgeStyle=none;curved=1;orthogonalLoop=1;jettySize=auto;html=1;entryX=0.5;entryY=0;entryDx=0;entryDy=0;fontSize=12;startSize=8;endSize=8;" edge="1" parent="1" source="oFf2WfIn4G3x6mx1aA_b-5" target="oFf2WfIn4G3x6mx1aA_b-1">
          <mxGeometry relative="1" as="geometry" />
        </mxCell>
        <mxCell id="oFf2WfIn4G3x6mx1aA_b-5" value="同行业发展趋势&lt;br&gt;知识库" style="rounded=0;whiteSpace=wrap;html=1;" vertex="1" parent="1">
          <mxGeometry x="-320" y="-300" width="120" height="60" as="geometry" />
        </mxCell>
        <mxCell id="cwKaPlKyqX2xf4Qcig6E-7" style="edgeStyle=none;curved=1;orthogonalLoop=1;jettySize=auto;html=1;fontSize=12;startSize=8;endSize=8;" edge="1" parent="1">
          <mxGeometry relative="1" as="geometry">
            <mxPoint x="-410.5" y="100" as="sourcePoint" />
            <mxPoint x="-410.5" y="160" as="targetPoint" />
          </mxGeometry>
        </mxCell>
        <mxCell id="cwKaPlKyqX2xf4Qcig6E-20" style="edgeStyle=none;curved=1;orthogonalLoop=1;jettySize=auto;html=1;entryX=0;entryY=0.75;entryDx=0;entryDy=0;fontSize=12;startSize=8;endSize=8;" edge="1" parent="1">
          <mxGeometry relative="1" as="geometry">
            <mxPoint x="-410" y="125" as="sourcePoint" />
            <mxPoint x="-20" y="120" as="targetPoint" />
          </mxGeometry>
        </mxCell>
        <mxCell id="ZHlB8Fmt3uqJ9cnptXor-5" value="" style="edgeStyle=none;curved=1;orthogonalLoop=1;jettySize=auto;html=1;fontSize=12;startSize=8;endSize=8;" edge="1" parent="1" source="oFf2WfIn4G3x6mx1aA_b-9" target="ZHlB8Fmt3uqJ9cnptXor-4">
          <mxGeometry relative="1" as="geometry" />
        </mxCell>
        <mxCell id="oFf2WfIn4G3x6mx1aA_b-9" value="合并的prompt" style="rounded=0;whiteSpace=wrap;html=1;fillColor=#ffe6cc;strokeColor=#d79b00;" vertex="1" parent="1">
          <mxGeometry x="-470" y="-70" width="120" height="60" as="geometry" />
        </mxCell>
        <mxCell id="oFf2WfIn4G3x6mx1aA_b-12" value="放入LLM， 分析该企业未来的风险趋势。&lt;br&gt;预测风险趋势时添加第一步的风险等级和判断依据，如果等级低预测趋势保持乐观。第1和3方向无风险时固定表述&lt;div&gt;&lt;span style=&quot;text-align: left;&quot;&gt;.企业无风险时，从政策方向进行趋势预测&lt;br&gt;依据中包含新闻（url），知识库（知识ID），政策（url）&lt;/span&gt;&lt;/div&gt;" style="text;html=1;align=center;verticalAlign=middle;whiteSpace=wrap;rounded=0;" vertex="1" parent="1">
          <mxGeometry x="-790" width="320" height="50" as="geometry" />
        </mxCell>
        <mxCell id="ZHlB8Fmt3uqJ9cnptXor-7" value="" style="edgeStyle=none;curved=1;orthogonalLoop=1;jettySize=auto;html=1;fontSize=12;startSize=8;endSize=8;" edge="1" parent="1" source="ap1UafbcO5KSiNEdRv5n-1" target="ZHlB8Fmt3uqJ9cnptXor-6">
          <mxGeometry relative="1" as="geometry" />
        </mxCell>
        <mxCell id="ap1UafbcO5KSiNEdRv5n-1" value="分析报告" style="rounded=0;whiteSpace=wrap;html=1;" vertex="1" parent="1">
          <mxGeometry x="-470" y="280" width="120" height="60" as="geometry" />
        </mxCell>
        <mxCell id="ap1UafbcO5KSiNEdRv5n-13" style="edgeStyle=none;curved=1;orthogonalLoop=1;jettySize=auto;html=1;entryX=0;entryY=0.5;entryDx=0;entryDy=0;fontSize=12;startSize=8;endSize=8;strokeColor=#2F28FF;" edge="1" parent="1" source="ap1UafbcO5KSiNEdRv5n-3" target="oFf2WfIn4G3x6mx1aA_b-9">
          <mxGeometry relative="1" as="geometry">
            <Array as="points">
              <mxPoint x="-560" y="-180" />
            </Array>
          </mxGeometry>
        </mxCell>
        <mxCell id="ap1UafbcO5KSiNEdRv5n-3" value="企业" style="rounded=0;whiteSpace=wrap;html=1;" vertex="1" parent="1">
          <mxGeometry x="-620" y="-410" width="120" height="60" as="geometry" />
        </mxCell>
        <mxCell id="cwKaPlKyqX2xf4Qcig6E-9" style="edgeStyle=none;curved=1;orthogonalLoop=1;jettySize=auto;html=1;entryX=1;entryY=0.5;entryDx=0;entryDy=0;fontSize=12;startSize=8;endSize=8;" edge="1" parent="1" source="ap1UafbcO5KSiNEdRv5n-4" target="cwKaPlKyqX2xf4Qcig6E-5">
          <mxGeometry relative="1" as="geometry" />
        </mxCell>
        <mxCell id="ap1UafbcO5KSiNEdRv5n-4" value="行内多年度风险预警典型案例汇编报告" style="rounded=0;whiteSpace=wrap;html=1;" vertex="1" parent="1">
          <mxGeometry x="-20" y="160" width="120" height="60" as="geometry" />
        </mxCell>
        <mxCell id="ap1UafbcO5KSiNEdRv5n-12" style="edgeStyle=none;curved=1;orthogonalLoop=1;jettySize=auto;html=1;entryX=0.5;entryY=0;entryDx=0;entryDy=0;fontSize=12;startSize=8;endSize=8;strokeColor=#2F28FF;" edge="1" parent="1" source="ap1UafbcO5KSiNEdRv5n-11" target="oFf2WfIn4G3x6mx1aA_b-5">
          <mxGeometry relative="1" as="geometry" />
        </mxCell>
        <mxCell id="ap1UafbcO5KSiNEdRv5n-11" value="同行业企业" style="rounded=0;whiteSpace=wrap;html=1;" vertex="1" parent="1">
          <mxGeometry x="-320" y="-410" width="120" height="60" as="geometry" />
        </mxCell>
        <mxCell id="ap1UafbcO5KSiNEdRv5n-15" value="&lt;div style=&quot;font-family: Consolas, &amp;quot;Courier New&amp;quot;, monospace; font-weight: normal; font-size: 13px; line-height: 18px; white-space: pre;&quot;&gt;&lt;div style=&quot;&quot;&gt;&lt;h1 style=&quot;&quot;&gt;&lt;span&gt;&lt;font style=&quot;color: rgb(0, 0, 0);&quot;&gt;蓝色箭头处理结果&lt;/font&gt;&lt;/span&gt;&lt;/h1&gt;&lt;font&gt;&lt;font style=&quot;color: rgb(0, 0, 0);&quot;&gt;&amp;nbsp; &amp;nbsp; * 事件路径：风险演化路径&lt;br&gt;&lt;/font&gt;&lt;font style=&quot;color: rgb(0, 0, 0);&quot;&gt;    * 事件：三类关键事件（风险事件，风险相关事件，风险因果事件），每个事件包含以下字段：&lt;/font&gt;&lt;/font&gt;&lt;/div&gt;&lt;div style=&quot;&quot;&gt;&lt;span style=&quot;color: rgb(206, 145, 120);&quot;&gt;&lt;font style=&quot;color: rgb(0, 0, 0);&quot;&gt;&amp;nbsp; &amp;nbsp; &amp;nbsp; * 发生时间&lt;/font&gt;&lt;/span&gt;&lt;/div&gt;&lt;div style=&quot;&quot;&gt;&lt;span style=&quot;color: rgb(206, 145, 120);&quot;&gt;&lt;font style=&quot;color: rgb(0, 0, 0);&quot;&gt;&amp;nbsp; &amp;nbsp; &amp;nbsp; * 事件名称&lt;/font&gt;&lt;/span&gt;&lt;/div&gt;&lt;div style=&quot;&quot;&gt;&lt;span style=&quot;color: rgb(206, 145, 120);&quot;&gt;&lt;font style=&quot;color: rgb(0, 0, 0);&quot;&gt;&amp;nbsp; &amp;nbsp; &amp;nbsp; * 事件摘要&lt;/font&gt;&lt;/span&gt;&lt;/div&gt;&lt;div style=&quot;&quot;&gt;&lt;span style=&quot;color: rgb(206, 145, 120);&quot;&gt;&lt;font style=&quot;color: rgb(0, 0, 0);&quot;&gt;&amp;nbsp; &amp;nbsp; &amp;nbsp; * 事件来源&lt;/font&gt;&lt;/span&gt;&lt;/div&gt;&lt;div style=&quot;&quot;&gt;&lt;span style=&quot;color: rgb(206, 145, 120);&quot;&gt;&lt;font style=&quot;color: rgb(0, 0, 0);&quot;&gt;&amp;nbsp; &amp;nbsp; &amp;nbsp; * 潜在影响&lt;/font&gt;&lt;/span&gt;&lt;/div&gt;&lt;div style=&quot;&quot;&gt;&lt;span style=&quot;color: rgb(206, 145, 120);&quot;&gt;&lt;font style=&quot;color: rgb(0, 0, 0);&quot;&gt;&amp;nbsp; &amp;nbsp; &amp;nbsp; * 新闻编号&lt;/font&gt;&lt;/span&gt;&lt;/div&gt;&lt;/div&gt;" style="text;whiteSpace=wrap;html=1;" vertex="1" parent="1">
          <mxGeometry x="130" y="-140" width="560" height="220" as="geometry" />
        </mxCell>
        <mxCell id="cwKaPlKyqX2xf4Qcig6E-8" style="edgeStyle=none;curved=1;orthogonalLoop=1;jettySize=auto;html=1;entryX=1;entryY=0.5;entryDx=0;entryDy=0;fontSize=12;startSize=8;endSize=8;" edge="1" parent="1" source="cwKaPlKyqX2xf4Qcig6E-5" target="cwKaPlKyqX2xf4Qcig6E-6">
          <mxGeometry relative="1" as="geometry" />
        </mxCell>
        <mxCell id="cwKaPlKyqX2xf4Qcig6E-5" value="银行建议&lt;br&gt;知识库" style="rounded=0;whiteSpace=wrap;html=1;" vertex="1" parent="1">
          <mxGeometry x="-230" y="160" width="120" height="60" as="geometry" />
        </mxCell>
        <mxCell id="cwKaPlKyqX2xf4Qcig6E-11" style="edgeStyle=none;curved=1;orthogonalLoop=1;jettySize=auto;html=1;entryX=0.5;entryY=0;entryDx=0;entryDy=0;fontSize=12;startSize=8;endSize=8;" edge="1" parent="1" source="cwKaPlKyqX2xf4Qcig6E-6" target="ap1UafbcO5KSiNEdRv5n-1">
          <mxGeometry relative="1" as="geometry" />
        </mxCell>
        <mxCell id="cwKaPlKyqX2xf4Qcig6E-6" value="合并的prompt" style="rounded=0;whiteSpace=wrap;html=1;fillColor=#ffe6cc;strokeColor=#d79b00;" vertex="1" parent="1">
          <mxGeometry x="-470" y="160" width="120" height="60" as="geometry" />
        </mxCell>
        <mxCell id="cwKaPlKyqX2xf4Qcig6E-12" value="依据风险，提供建议，用整体的风险等级判断是否建议&lt;br&gt;若上面固定表述，这里建议为持续关注&lt;br&gt;风险等级越低，建议措施越乐观，高风险要紧迫" style="text;html=1;align=center;verticalAlign=middle;whiteSpace=wrap;rounded=0;" vertex="1" parent="1">
          <mxGeometry x="-790" y="240" width="310" height="60" as="geometry" />
        </mxCell>
        <mxCell id="cwKaPlKyqX2xf4Qcig6E-14" value="&lt;br&gt;&lt;div&gt;&lt;br&gt;&lt;/div&gt;" style="text;html=1;align=center;verticalAlign=middle;whiteSpace=wrap;rounded=0;" vertex="1" parent="1">
          <mxGeometry x="-700" y="-267.5" width="140" height="55" as="geometry" />
        </mxCell>
        <mxCell id="cwKaPlKyqX2xf4Qcig6E-19" value="依据风险搜索银行建议" style="rounded=0;whiteSpace=wrap;html=1;" vertex="1" parent="1">
          <mxGeometry x="-20" y="80" width="120" height="60" as="geometry" />
        </mxCell>
        <mxCell id="cwKaPlKyqX2xf4Qcig6E-21" style="edgeStyle=none;curved=1;orthogonalLoop=1;jettySize=auto;html=1;entryX=0.65;entryY=-0.025;entryDx=0;entryDy=0;entryPerimeter=0;fontSize=12;startSize=8;endSize=8;" edge="1" parent="1" source="cwKaPlKyqX2xf4Qcig6E-19" target="cwKaPlKyqX2xf4Qcig6E-5">
          <mxGeometry relative="1" as="geometry" />
        </mxCell>
        <mxCell id="cwKaPlKyqX2xf4Qcig6E-28" style="edgeStyle=none;curved=1;orthogonalLoop=1;jettySize=auto;html=1;entryX=0.5;entryY=0;entryDx=0;entryDy=0;fontSize=12;startSize=8;endSize=8;" edge="1" parent="1" source="cwKaPlKyqX2xf4Qcig6E-22" target="cwKaPlKyqX2xf4Qcig6E-27">
          <mxGeometry relative="1" as="geometry" />
        </mxCell>
        <mxCell id="cwKaPlKyqX2xf4Qcig6E-22" value="行业政策，区域政策，国家政策，知识库" style="rounded=0;whiteSpace=wrap;html=1;" vertex="1" parent="1">
          <mxGeometry x="-120" y="-420" width="120" height="60" as="geometry" />
        </mxCell>
        <mxCell id="cwKaPlKyqX2xf4Qcig6E-29" style="edgeStyle=none;curved=1;orthogonalLoop=1;jettySize=auto;html=1;fontSize=12;startSize=8;endSize=8;" edge="1" parent="1" source="cwKaPlKyqX2xf4Qcig6E-27">
          <mxGeometry relative="1" as="geometry">
            <mxPoint x="-340" y="-40" as="targetPoint" />
            <Array as="points">
              <mxPoint x="-70" y="-80" />
            </Array>
          </mxGeometry>
        </mxCell>
        <mxCell id="cwKaPlKyqX2xf4Qcig6E-27" value="判断政策是否会波及到该企业，影响经营。只保留符合条件的摘要" style="rounded=0;whiteSpace=wrap;html=1;" vertex="1" parent="1">
          <mxGeometry x="-120" y="-300" width="120" height="60" as="geometry" />
        </mxCell>
        <mxCell id="cwKaPlKyqX2xf4Qcig6E-30" value="搜索" style="text;html=1;align=center;verticalAlign=middle;whiteSpace=wrap;rounded=0;" vertex="1" parent="1">
          <mxGeometry x="-90" y="-460" width="60" height="30" as="geometry" />
        </mxCell>
        <mxCell id="cwKaPlKyqX2xf4Qcig6E-34" value="趋势预测和银行建议需要用大模型审核，" style="text;html=1;align=center;verticalAlign=middle;whiteSpace=wrap;rounded=0;" vertex="1" parent="1">
          <mxGeometry x="-250" y="310" width="290" height="30" as="geometry" />
        </mxCell>
        <mxCell id="cwKaPlKyqX2xf4Qcig6E-35" value="&lt;div style=&quot;text-align: left;&quot;&gt;&lt;span style=&quot;background-color: transparent; color: light-dark(rgb(0, 0, 0), rgb(255, 255, 255)); text-align: center;&quot;&gt;若企业无风险，无政策风险，趋势是固定的一句话。&lt;/span&gt;&lt;/div&gt;&lt;div style=&quot;text-align: center;&quot;&gt;验证风险是否来源于企业本身的风险和政策风险出发的&lt;br&gt;判断是否有依据，若没有删除该趋势&lt;/div&gt;" style="text;html=1;align=center;verticalAlign=middle;whiteSpace=wrap;rounded=0;" vertex="1" parent="1">
          <mxGeometry x="-810" y="80" width="320" height="80" as="geometry" />
        </mxCell>
        <mxCell id="ZHlB8Fmt3uqJ9cnptXor-4" value="合并的prompt" style="rounded=0;whiteSpace=wrap;html=1;fillColor=#ffe6cc;strokeColor=#d79b00;" vertex="1" parent="1">
          <mxGeometry x="-470" y="40" width="120" height="60" as="geometry" />
        </mxCell>
        <mxCell id="ZHlB8Fmt3uqJ9cnptXor-6" value="分析报告" style="rounded=0;whiteSpace=wrap;html=1;" vertex="1" parent="1">
          <mxGeometry x="-470" y="390" width="120" height="60" as="geometry" />
        </mxCell>
      </root>
    </mxGraphModel>
  </diagram>
</mxfile>
